<?xml version="1.0" encoding="UTF-8" ?>
<!DOCTYPE svg PUBLIC "-//W3C//DTD SVG 1.1//EN" "http://www.w3.org/Graphics/SVG/1.1/DTD/svg11.dtd">
<svg width="646pt" height="713pt" viewBox="0 0 646 713" version="1.1" xmlns="http://www.w3.org/2000/svg">
<g id="#000000ff">
<path fill="#000000" opacity="1.00" d=" M 217.52 65.99 C 354.32 48.82 491.14 31.86 627.97 14.90 C 627.99 66.95 628.91 118.99 628.93 171.03 C 628.86 225.02 629.82 279.00 629.90 332.98 C 629.87 399.98 631.03 466.97 630.98 533.97 C 630.88 542.50 631.27 551.05 630.71 559.57 C 629.44 559.94 628.87 560.76 628.99 562.02 C 628.30 579.11 621.70 595.71 611.29 609.20 C 592.32 633.91 562.51 648.79 531.99 653.02 C 496.76 658.08 459.07 649.41 431.24 626.75 C 415.75 614.24 403.57 597.22 398.27 577.91 C 394.31 563.66 394.25 548.37 398.22 534.10 C 403.64 514.11 416.62 496.70 432.95 484.20 C 461.01 462.65 498.21 454.69 532.92 459.90 C 557.73 463.53 581.70 474.20 600.06 491.42 C 600.16 435.94 599.48 380.46 599.26 324.98 C 598.98 262.87 599.11 200.75 598.46 138.65 C 481.51 154.51 364.57 170.52 247.62 186.45 C 247.99 237.94 247.94 289.44 248.02 340.93 C 248.67 426.94 248.99 512.96 249.00 598.98 C 249.00 600.12 249.41 601.13 250.22 601.99 C 248.72 603.06 248.33 604.77 248.30 606.52 C 247.11 625.89 238.98 644.59 226.21 659.13 C 203.78 684.63 169.43 697.38 135.98 698.00 C 106.35 699.03 75.98 690.76 52.18 672.79 C 38.63 662.53 27.35 648.97 20.93 633.15 C 12.81 613.48 12.91 590.63 20.98 570.97 C 27.86 553.99 40.09 539.48 54.85 528.78 C 77.58 512.26 105.97 504.12 133.97 504.84 C 165.20 505.04 196.83 516.25 219.67 537.87 C 219.28 480.60 219.10 423.33 219.02 366.05 C 219.09 310.35 218.40 254.65 218.26 198.95 C 217.99 154.63 218.31 110.31 217.52 65.99 M 247.68 127.10 C 247.68 136.39 247.69 145.67 247.68 154.96 C 364.58 138.73 481.57 123.18 598.47 106.93 C 598.48 98.40 598.45 89.88 598.49 81.36 C 481.55 96.57 364.61 111.84 247.68 127.10 Z" />
</g>
</svg>
