<?xml version="1.0" encoding="UTF-8" ?>
<!DOCTYPE svg PUBLIC "-//W3C//DTD SVG 1.1//EN" "http://www.w3.org/Graphics/SVG/1.1/DTD/svg11.dtd">
<svg width="210pt" height="240pt" viewBox="0 0 210 240" version="1.1" xmlns="http://www.w3.org/2000/svg">
<g id="#000000ff">
<path fill="#000000" opacity="1.00" d=" M 92.57 14.66 C 100.55 14.81 108.53 14.80 116.51 14.67 L 116.45 15.53 L 117.15 15.58 C 117.39 16.70 117.67 17.82 117.98 18.92 C 118.37 19.90 118.76 20.88 119.15 21.86 C 120.11 24.54 120.92 27.28 122.09 29.88 C 122.41 30.88 122.74 31.88 123.08 32.87 C 123.42 33.88 123.77 34.88 124.15 35.88 C 125.24 38.48 125.71 41.37 127.18 43.79 C 132.34 46.33 137.96 47.98 143.08 50.67 C 152.32 46.14 161.33 41.08 170.78 37.03 C 176.28 42.76 181.95 48.33 187.61 53.91 C 185.71 57.59 183.99 61.36 182.21 65.10 C 179.59 70.71 176.71 76.20 174.22 81.87 C 174.87 83.19 175.51 84.53 176.15 85.86 C 177.33 89.27 178.95 92.51 180.16 95.92 C 180.99 99.00 184.79 98.74 187.19 99.84 C 194.60 102.23 201.92 104.90 209.41 107.03 L 210.00 108.69 L 210.00 134.29 L 209.63 130.94 C 208.33 132.03 206.75 132.64 205.18 133.18 C 202.46 134.04 199.78 134.98 197.16 136.10 C 191.94 137.75 186.89 139.91 181.63 141.43 C 180.58 143.31 179.49 145.25 179.26 147.44 L 178.58 147.60 C 177.48 150.85 176.18 154.07 174.37 157.00 C 174.78 159.99 176.79 162.42 177.96 165.14 C 181.32 171.53 184.28 178.13 187.90 184.39 C 187.34 186.97 184.54 188.05 183.12 190.11 C 181.04 192.04 179.00 194.02 177.11 196.14 C 174.63 198.90 170.40 200.94 170.99 205.35 C 172.41 201.68 168.82 201.33 166.79 200.17 C 161.80 197.89 156.94 195.32 151.90 193.14 C 149.62 191.93 147.29 190.82 144.98 189.67 C 142.64 188.62 140.31 190.24 138.22 191.14 C 135.82 192.06 133.41 192.95 131.12 194.10 C 129.65 194.64 128.17 195.16 126.69 195.66 C 126.56 196.26 126.31 197.44 126.18 198.03 C 125.81 199.05 125.45 200.09 125.11 201.12 C 122.93 208.61 119.81 215.86 118.19 223.49 L 117.11 223.72 C 117.29 224.14 117.65 224.98 117.83 225.41 C 116.04 225.33 114.26 225.29 112.48 225.27 L 112.53 224.65 C 107.19 224.79 101.84 224.76 96.49 224.67 L 96.35 225.55 C 95.19 225.16 94.02 224.79 92.85 224.43 C 92.54 222.23 91.84 220.13 90.89 218.13 C 89.61 214.44 88.39 210.72 86.87 207.12 C 86.56 206.11 86.24 205.11 85.91 204.11 C 85.57 203.13 85.22 202.16 84.85 201.19 C 84.22 199.43 83.62 197.65 83.09 195.86 C 82.53 195.71 81.42 195.39 80.86 195.23 C 79.25 194.40 77.58 193.68 75.86 193.12 C 73.55 192.07 71.21 191.07 68.87 190.10 C 68.19 189.90 66.84 189.51 66.16 189.32 C 61.59 192.34 56.41 194.29 51.61 196.91 C 47.43 198.86 43.52 201.43 39.11 202.85 C 34.04 196.84 28.06 191.67 22.64 185.99 C 23.57 182.73 25.59 179.91 26.81 176.76 C 29.89 170.90 32.22 164.62 35.70 159.01 C 34.97 155.54 33.22 152.42 31.89 149.17 C 31.26 147.48 30.59 145.80 29.94 144.12 C 29.52 141.87 27.61 141.11 25.52 141.18 L 25.41 140.47 C 24.81 140.41 23.61 140.27 23.01 140.21 C 22.02 139.79 21.03 139.40 20.03 139.02 C 19.00 138.70 17.97 138.38 16.94 138.07 C 15.93 137.72 14.91 137.38 13.90 137.05 C 11.91 136.31 9.89 135.66 7.86 135.06 C 6.87 134.71 5.88 134.35 4.90 133.98 C 3.52 133.48 2.07 133.26 0.61 133.35 L 0.00 131.51 L 0.00 104.56 L 0.33 108.44 C 1.52 107.89 2.71 107.36 3.92 106.84 C 4.91 106.54 5.90 106.22 6.88 105.88 C 10.52 104.51 14.27 103.44 17.84 101.89 C 18.86 101.58 19.87 101.26 20.89 100.92 C 21.88 100.57 22.86 100.21 23.85 99.84 C 25.74 99.18 28.12 98.95 29.23 97.03 C 31.31 92.00 33.09 86.83 35.58 81.98 C 33.91 79.08 32.65 75.96 30.84 73.15 C 30.31 72.00 29.84 70.82 29.46 69.62 L 28.88 69.52 C 27.67 65.59 25.27 62.19 23.62 58.44 C 22.59 56.42 21.78 53.32 18.23 55.02 C 21.10 56.00 22.59 53.78 24.23 52.22 C 29.04 47.22 34.08 42.44 38.88 37.44 C 43.30 39.79 47.74 42.21 52.47 43.89 L 52.62 44.42 C 57.26 46.21 61.74 48.46 66.11 50.85 C 67.03 50.55 67.95 50.24 68.86 49.91 C 72.87 48.22 76.92 46.63 80.94 44.96 C 83.13 44.79 83.65 42.86 83.95 41.01 C 84.29 40.02 84.62 39.02 84.97 38.02 C 85.30 37.01 85.64 35.98 85.96 34.96 C 86.29 33.95 86.62 32.94 86.93 31.92 C 87.27 30.90 87.60 29.88 87.91 28.85 C 88.91 25.85 89.94 22.85 90.86 19.82 C 91.47 18.11 92.00 16.38 92.57 14.66 M 96.48 75.64 L 96.50 76.41 C 95.13 76.40 93.76 76.44 92.40 76.53 L 92.71 77.33 C 91.90 77.37 90.27 77.44 89.46 77.47 L 89.72 78.42 C 89.18 78.46 88.11 78.53 87.58 78.57 C 82.77 80.83 78.06 83.49 74.32 87.32 C 69.51 91.98 64.95 97.65 63.38 104.21 C 62.38 104.99 62.01 106.17 62.26 107.74 L 61.53 107.38 C 61.44 108.75 61.40 110.12 61.41 111.49 L 60.64 111.47 C 60.20 117.15 60.19 122.86 60.64 128.54 L 61.41 128.50 C 61.40 129.87 61.43 131.25 61.51 132.62 L 62.28 132.22 C 62.35 133.06 62.49 134.74 62.55 135.58 L 63.39 135.49 C 63.77 139.60 66.62 143.07 68.75 146.50 C 74.02 153.18 80.88 159.45 89.23 161.64 C 90.00 162.62 91.17 162.99 92.73 162.74 L 92.38 163.48 C 93.74 163.55 95.11 163.59 96.48 163.60 L 96.45 164.34 C 102.13 164.82 107.85 164.81 113.54 164.34 L 113.51 163.61 C 114.87 163.60 116.22 163.55 117.58 163.47 L 117.32 162.72 C 118.65 162.82 119.86 162.52 120.95 161.82 C 127.60 159.59 133.45 155.33 138.16 150.17 C 141.86 146.06 145.34 141.24 146.64 135.84 C 147.60 134.97 147.97 133.78 147.75 132.25 L 148.49 132.62 C 148.57 131.24 148.60 129.86 148.59 128.48 L 149.35 128.56 C 149.80 122.86 149.81 117.13 149.35 111.42 L 148.60 111.52 C 148.60 110.15 148.56 108.78 148.48 107.42 L 147.75 107.70 C 147.83 106.36 147.52 105.15 146.83 104.06 C 142.63 92.19 132.76 82.44 120.95 78.13 C 119.86 77.48 118.66 77.20 117.34 77.29 L 117.58 76.53 C 116.22 76.44 114.86 76.40 113.50 76.40 L 113.52 75.64 C 107.84 75.20 102.15 75.20 96.48 75.64 Z" />
</g>
</svg>
