<?xml version="1.0" encoding="UTF-8" ?>
<!DOCTYPE svg PUBLIC "-//W3C//DTD SVG 1.1//EN" "http://www.w3.org/Graphics/SVG/1.1/DTD/svg11.dtd">
<svg width="512pt" height="512pt" viewBox="0 0 512 512" version="1.1" xmlns="http://www.w3.org/2000/svg">
<g id="#000000ff">
<path fill="#000000" opacity="1.00" d=" M 417.62 0.00 L 423.25 0.00 C 433.95 0.85 444.36 5.32 452.00 12.93 C 467.71 28.57 483.40 44.24 499.03 59.97 C 506.61 67.58 511.09 77.96 512.00 88.63 L 512.00 94.14 C 511.22 103.74 507.58 113.09 501.37 120.49 C 444.98 189.11 388.57 257.71 332.19 326.33 C 336.35 330.62 340.78 334.68 344.81 339.11 C 349.74 344.91 349.01 354.25 343.49 359.42 C 315.33 387.58 287.18 415.75 258.99 443.89 C 253.86 449.24 244.74 449.85 239.03 445.09 C 234.89 441.36 231.15 437.22 227.12 433.38 C 209.47 450.98 191.89 468.64 174.23 486.23 C 169.65 490.97 161.91 492.15 156.18 488.85 C 150.89 485.28 146.99 480.06 142.29 475.79 C 133.35 484.67 124.46 493.61 115.54 502.51 C 111.45 506.77 107.10 511.71 100.71 512.00 L 98.18 512.00 C 94.95 511.32 91.72 510.11 89.37 507.71 C 62.18 480.55 35.03 453.37 7.85 426.21 C 4.21 422.96 0.83 419.12 0.00 414.14 L 0.00 410.68 C 0.59 407.28 1.94 403.93 4.46 401.50 C 15.04 390.92 25.64 380.34 36.22 369.75 C 32.47 365.80 28.44 362.13 24.76 358.13 C 19.71 352.41 20.25 342.93 25.80 337.74 C 43.40 320.11 61.04 302.52 78.63 284.88 C 75.08 281.23 71.42 277.70 67.85 274.08 C 63.72 269.90 62.44 263.17 64.87 257.80 C 66.23 254.43 69.08 252.06 71.57 249.55 C 98.72 222.41 125.84 195.24 153.00 168.12 C 158.35 162.70 167.80 162.41 173.39 167.60 C 177.57 171.58 181.55 175.77 185.66 179.81 C 252.32 125.12 318.87 70.31 385.50 15.60 C 390.14 11.83 394.60 7.72 399.99 5.02 C 405.44 2.13 411.51 0.64 417.62 0.00 M 410.12 34.16 C 342.42 89.83 274.73 145.52 206.99 201.14 C 213.71 207.78 220.36 214.49 227.02 221.19 C 245.27 203.38 263.07 185.09 281.26 167.21 C 293.06 155.91 311.24 152.11 326.63 157.54 C 341.06 162.35 352.48 175.06 355.74 189.93 C 359.29 204.73 354.59 221.10 343.79 231.81 C 326.13 249.52 308.45 267.20 290.74 284.87 C 297.41 291.62 304.21 298.23 310.86 305.01 C 366.63 237.09 422.50 169.25 478.28 101.34 C 483.27 95.72 483.10 86.44 477.75 81.12 C 462.68 65.91 447.48 50.84 432.38 35.66 C 426.99 29.03 416.29 28.13 410.12 34.16 M 301.47 189.32 C 283.74 207.01 266.06 224.75 248.32 242.45 C 255.41 249.52 262.47 256.62 269.57 263.68 C 287.24 245.97 304.97 228.31 322.62 210.58 C 328.32 205.00 328.27 194.98 322.54 189.45 C 317.03 183.74 307.04 183.67 301.47 189.32 M 99.88 263.59 C 106.82 270.80 114.02 277.76 121.06 284.88 C 142.29 263.69 163.51 242.49 184.69 221.25 C 177.64 214.16 170.55 207.12 163.49 200.04 C 142.26 221.20 121.13 242.46 99.88 263.59 M 142.28 306.11 C 149.38 313.15 156.39 320.29 163.53 327.29 C 184.65 305.98 206.10 284.98 227.07 263.52 C 219.91 256.61 213.00 249.45 205.90 242.47 C 184.69 263.68 163.48 284.88 142.28 306.11 M 184.71 348.53 C 191.76 355.61 198.85 362.65 205.90 369.73 C 227.12 348.53 248.34 327.33 269.53 306.10 C 262.52 299.01 255.41 292.01 248.41 284.91 C 227.09 306.03 205.94 327.32 184.71 348.53 M 57.45 348.63 C 92.88 383.86 128.14 419.25 163.47 454.58 C 177.62 440.44 191.78 426.30 205.91 412.13 C 170.54 376.80 135.22 341.42 99.84 306.10 C 85.76 320.32 71.45 334.33 57.45 348.63 M 227.13 390.93 C 234.17 398.01 241.24 405.06 248.29 412.13 C 269.60 391.02 290.73 369.73 311.96 348.54 C 304.91 341.44 297.84 334.37 290.75 327.31 C 269.53 348.51 248.33 369.72 227.13 390.93 M 36.22 412.17 C 57.43 433.37 78.64 454.57 99.84 475.78 C 106.94 468.74 113.98 461.65 121.06 454.59 C 99.89 433.35 78.63 412.19 57.46 390.95 C 50.36 397.99 43.28 405.07 36.22 412.17 Z" />
</g>
</svg>
