<?xml version="1.0" encoding="UTF-8" ?>
<!DOCTYPE svg PUBLIC "-//W3C//DTD SVG 1.1//EN" "http://www.w3.org/Graphics/SVG/1.1/DTD/svg11.dtd">
<svg width="452pt" height="452pt" viewBox="0 0 452 452" version="1.1" xmlns="http://www.w3.org/2000/svg">
<g id="#000000ff">
<path fill="#000000" opacity="1.00" d=" M 81.12 51.23 C 90.89 42.55 107.15 43.52 116.06 52.98 C 120.98 58.34 125.50 64.05 130.29 69.53 C 144.53 70.93 158.77 72.43 173.01 73.93 C 178.07 74.27 182.94 77.09 185.39 81.59 C 188.78 87.33 187.66 95.26 182.78 99.81 C 179.44 103.14 174.52 104.55 169.89 103.91 C 158.82 102.76 147.76 101.61 136.70 100.46 C 121.76 112.99 106.82 125.51 91.87 138.03 C 90.34 149.31 88.90 160.60 87.35 171.88 C 86.83 176.73 83.95 181.27 79.63 183.59 C 74.03 186.78 66.44 185.78 61.90 181.21 C 58.38 177.90 56.75 172.85 57.48 168.08 C 59.40 153.43 61.40 138.79 63.32 124.14 C 58.97 118.75 54.67 113.30 50.21 107.99 C 42.52 98.69 44.03 83.83 52.87 75.80 C 62.19 67.50 71.71 59.42 81.12 51.23 Z" />
<path fill="#000000" opacity="1.00" d=" M 165.83 153.04 C 164.34 145.53 169.61 137.58 177.06 135.91 C 182.28 134.52 188.02 136.37 191.70 140.25 C 257.04 205.61 322.41 270.93 387.73 336.30 C 392.43 341.67 399.24 344.87 403.14 350.99 C 406.72 355.94 408.45 362.79 405.44 368.44 C 400.47 378.28 390.54 384.21 380.92 388.79 C 361.47 397.70 340.23 401.87 319.11 404.46 C 288.53 407.95 257.46 407.55 227.03 402.91 C 208.00 399.76 188.83 395.33 171.65 386.30 C 163.17 381.69 154.28 375.53 151.29 365.86 C 136.28 315.82 121.28 265.79 106.26 215.76 C 104.38 210.32 105.78 203.91 109.99 199.93 C 114.85 195.02 123.18 194.28 128.84 198.24 C 132.17 200.37 134.26 203.95 135.29 207.70 C 148.08 250.39 160.90 293.07 173.70 335.75 C 191.29 327.15 210.58 322.74 229.84 319.84 C 262.61 315.15 296.05 315.33 328.81 319.99 C 276.88 267.99 224.88 216.05 172.91 164.08 C 169.71 161.07 166.42 157.61 165.83 153.04 Z" />
</g>
</svg>
